<svg width="128" height="128" viewBox="0 0 128 128" fill="none" xmlns="http://www.w3.org/2000/svg">
<rect x="0.5" y="0.5" width="127" height="127" rx="7.5" fill="#414042" stroke="white"/>
<g filter="url(#filter0_d_1_35)">
<path fill-rule="evenodd" clip-rule="evenodd" d="M28.6944 41.109L39.6366 22.5759L65.477 15.9672L83.9733 26.9713L103.083 101.69L47.8038 115.827L28.6944 41.109ZM57.5509 38.7989C61.6155 37.7594 64.065 33.6106 63.022 29.5324C61.979 25.4541 57.8384 22.9908 53.7738 24.0303C49.7092 25.0699 47.2597 29.2186 48.3028 33.2969C49.3458 37.3751 53.4863 39.8385 57.5509 38.7989Z" fill="#265B82"/>
<path fill-rule="evenodd" clip-rule="evenodd" d="M28.9279 33.92L42.9987 17.5869L69.6865 15.6012L86.0196 29.672L91.7422 106.583L34.6505 110.831L28.9279 33.92ZM57.8382 36.6944C62.0361 36.3821 65.186 32.7258 64.8736 28.5279C64.5613 24.33 60.905 21.1801 56.7071 21.4925C52.5092 21.8048 49.3593 25.4611 49.6717 29.659C49.984 33.8569 53.6403 37.0068 57.8382 36.6944Z" fill="#3179AE"/>
<path fill-rule="evenodd" clip-rule="evenodd" d="M27.3451 30.6174L42.589 15.3734H69.3507L84.5946 30.6174V107.741H27.3451V30.6174ZM55.9698 35.5293C60.1793 35.5293 63.5918 32.1169 63.5918 27.9074C63.5918 23.6979 60.1793 20.2854 55.9698 20.2854C51.7603 20.2854 48.3479 23.6979 48.3479 27.9074C48.3479 32.1169 51.7603 35.5293 55.9698 35.5293Z" fill="#478CBF"/>
<path d="M78.9623 87.932C78.9623 87.932 78.8859 87.4633 78.8412 87.4676L70.3378 88.288C69.6612 88.3534 69.1357 88.893 69.0883 89.571L68.8546 92.9193L62.276 93.3886L61.8286 90.3541C61.7289 89.6791 61.1395 89.1703 60.4572 89.1703H51.4824C50.8004 89.1703 50.211 89.6791 50.1113 90.3541L49.6636 93.3886L43.085 92.9193L42.8514 89.571C42.8039 88.8927 42.2784 88.3531 41.6018 88.2878L33.0942 87.4676C33.0502 87.4633 33.018 87.9324 32.9741 87.9324L32.9626 89.7726L40.1677 90.9346L40.4037 94.3127C40.4514 94.9966 41.0032 95.5496 41.6876 95.5987L50.7477 96.245C50.7821 96.2474 50.8159 96.2488 50.8497 96.2488C51.5306 96.2488 52.1191 95.7397 52.2187 95.0647L52.6791 91.9423H59.2608L59.7212 95.0647C59.8206 95.7395 60.4098 96.2485 61.0916 96.2485C61.1249 96.2485 61.1583 96.2474 61.191 96.245L70.2523 95.5987C70.9364 95.5496 71.4885 94.9966 71.5362 94.3127L71.7719 90.9346L78.974 89.7675L78.9623 87.932Z" fill="white"/>
<path d="M32.974 74.0563V85.2229V86.6412V87.932C32.9994 87.9322 33.0247 87.9331 33.0499 87.9355L41.5566 88.7557C42.0022 88.7987 42.3514 89.1573 42.3824 89.6039L42.6447 93.359L50.0651 93.8885L50.5763 90.4227C50.6426 89.9733 51.028 89.6403 51.4825 89.6403H60.4574C60.9117 89.6403 61.2971 89.9733 61.3634 90.4227L61.8745 93.8885L69.2952 93.359L69.5572 89.6039C69.5885 89.1573 69.9375 88.7989 70.3831 88.7557L78.8865 87.9355C78.9116 87.9331 78.9368 87.9322 78.9622 87.932V86.8248L78.9657 86.8236V74.0563C80.1636 72.5483 81.2978 70.8849 82.1669 69.4855C80.8388 67.2246 79.2115 65.2041 77.4722 63.3322C75.859 64.1442 74.2921 65.0641 72.8122 66.0429C72.0717 65.3068 71.2376 64.7047 70.4183 64.0754C69.6134 63.4288 68.7062 62.9548 67.8458 62.4025C68.102 60.4949 68.2287 58.6168 68.2797 56.6568C66.0597 55.5395 63.6924 54.7988 61.2978 54.2667C60.3417 55.8735 59.4675 57.6136 58.706 59.3146C57.8031 59.1637 56.8959 59.1078 55.9876 59.097V59.0956C55.9812 59.0956 55.9754 59.097 55.97 59.097C55.9643 59.097 55.9584 59.0956 55.9528 59.0956V59.097C55.0428 59.1078 54.1363 59.1637 53.2332 59.3146C52.4722 57.6136 51.5984 55.8735 50.6409 54.2667C48.2475 54.7988 45.88 55.5395 43.6602 56.6568C43.711 58.6168 43.8377 60.4949 44.0945 62.4025C43.2325 62.9548 42.3265 63.4288 41.5213 64.0754C40.7032 64.7047 39.8677 65.3068 39.127 66.0429C37.6471 65.0641 36.0807 64.1442 34.467 63.3322C32.7277 65.2041 31.1014 67.2246 29.7728 69.4855C30.8169 71.1244 31.9368 72.7717 32.974 74.0563Z" fill="#478CBF"/>
<path d="M71.3307 90.5049L71.0673 94.28C71.0356 94.7349 70.6736 95.0971 70.2186 95.1298L61.1575 95.7763C61.1355 95.778 61.1134 95.7787 61.0915 95.7787C60.6412 95.7787 60.2527 95.4482 60.1862 94.9961L59.6666 91.4722H52.2732L51.7536 94.9961C51.6838 95.4703 51.2598 95.8113 50.7822 95.7763L41.7212 95.1298C41.2662 95.0971 40.9042 94.7349 40.8725 94.28L40.6091 90.5049L32.9599 89.7674C32.9635 90.5895 32.974 91.4901 32.974 91.6694C32.974 99.7479 43.222 103.631 55.9543 103.675H55.9698H55.9855C68.7178 103.631 78.9622 99.7479 78.9622 91.6694C78.9622 91.4868 78.9733 90.5899 78.977 89.7674L71.3307 90.5049Z" fill="#478CBF"/>
<path d="M49.0375 79.6889C49.0375 82.5213 46.7426 84.8158 43.9111 84.8158C41.081 84.8158 38.7853 82.5213 38.7853 79.6889C38.7853 76.8583 41.081 74.565 43.9111 74.565C46.7426 74.565 49.0375 76.8583 49.0375 79.6889Z" fill="white"/>
<path d="M47.804 79.993C47.804 81.8717 46.2813 83.3944 44.4012 83.3944C42.522 83.3944 40.9983 81.8717 40.9983 79.993C40.9983 78.1142 42.522 76.5902 44.4012 76.5902C46.2813 76.5902 47.804 78.1142 47.804 79.993Z" fill="#414042"/>
<path d="M55.9695 85.2822C55.0581 85.2822 54.3194 84.6105 54.3194 83.7826V79.0632C54.3194 78.2359 55.0581 77.5635 55.9695 77.5635C56.8809 77.5635 57.6212 78.2359 57.6212 79.0632V83.7826C57.6212 84.6105 56.8809 85.2822 55.9695 85.2822Z" fill="white"/>
<path d="M62.9023 79.6889C62.9023 82.5213 65.1972 84.8158 68.0292 84.8158C70.859 84.8158 73.1544 82.5213 73.1544 79.6889C73.1544 76.8583 70.859 74.565 68.0292 74.565C65.1972 74.565 62.9023 76.8583 62.9023 79.6889Z" fill="white"/>
<path d="M64.1361 79.993C64.1361 81.8717 65.6583 83.3944 67.537 83.3944C69.4177 83.3944 70.9399 81.8717 70.9399 79.993C70.9399 78.1142 69.4177 76.5902 67.537 76.5902C65.6583 76.5902 64.1361 78.1142 64.1361 79.993Z" fill="#414042"/>
</g>
<defs>
<filter id="filter0_d_1_35" x="20.9173" y="12.2027" width="86.1653" height="111.625" filterUnits="userSpaceOnUse" color-interpolation-filters="sRGB">
<feFlood flood-opacity="0" result="BackgroundImageFix"/>
<feColorMatrix in="SourceAlpha" type="matrix" values="0 0 0 0 0 0 0 0 0 0 0 0 0 0 0 0 0 0 127 0" result="hardAlpha"/>
<feOffset dy="4"/>
<feGaussianBlur stdDeviation="2"/>
<feComposite in2="hardAlpha" operator="out"/>
<feColorMatrix type="matrix" values="0 0 0 0 0 0 0 0 0 0 0 0 0 0 0 0 0 0 0.25 0"/>
<feBlend mode="normal" in2="BackgroundImageFix" result="effect1_dropShadow_1_35"/>
<feBlend mode="normal" in="SourceGraphic" in2="effect1_dropShadow_1_35" result="shape"/>
</filter>
</defs>
</svg>
